<?xml version="1.0" encoding="UTF-8" standalone="no"?>
<svg
   xmlns:dc="http://purl.org/dc/elements/1.1/"
   xmlns:cc="http://creativecommons.org/ns#"
   xmlns:rdf="http://www.w3.org/1999/02/22-rdf-syntax-ns#"
   xmlns:svg="http://www.w3.org/2000/svg"
   xmlns="http://www.w3.org/2000/svg"
   xmlns:sodipodi="http://sodipodi.sourceforge.net/DTD/sodipodi-0.dtd"
   xmlns:inkscape="http://www.inkscape.org/namespaces/inkscape"
   version="1.1"
   id="svg28"
   xml:space="preserve"
   width="534.276"
   height="616.92902"
   viewBox="0 0 534.27598 616.92901"
   sodipodi:docname="logo final.svg"
   inkscape:version="1.0.1 (1.0.1+r73)"><metadata
     id="metadata34"><rdf:RDF><cc:Work
         rdf:about=""><dc:format>image/svg+xml</dc:format><dc:type
           rdf:resource="http://purl.org/dc/dcmitype/StillImage" /><dc:title></dc:title></cc:Work></rdf:RDF></metadata><defs
     id="defs32"><inkscape:path-effect
       effect="perspective-envelope"
       up_left_point="1281.4943,316.14233"
       up_right_point="1326.7189,342.25279"
       down_left_point="1281.4943,368.36325"
       down_right_point="1326.7189,394.47369"
       id="path-effect1747"
       is_visible="true"
       lpeversion="1"
       deform_type="perspective"
       horizontal_mirror="false"
       vertical_mirror="false"
       overflow_perspective="false" /><inkscape:path-effect
       effect="bspline"
       id="path-effect1743"
       is_visible="true"
       lpeversion="1"
       weight="33.333333"
       steps="2"
       helper_size="0"
       apply_no_weight="true"
       apply_with_weight="true"
       only_selected="false" /><inkscape:path-effect
       effect="bspline"
       id="path-effect1739"
       is_visible="true"
       lpeversion="1"
       weight="33.333333"
       steps="2"
       helper_size="0"
       apply_no_weight="true"
       apply_with_weight="true"
       only_selected="false" /><inkscape:path-effect
       effect="bspline"
       id="path-effect1735"
       is_visible="true"
       lpeversion="1"
       weight="33.333333"
       steps="2"
       helper_size="0"
       apply_no_weight="true"
       apply_with_weight="true"
       only_selected="false" /><inkscape:path-effect
       effect="bspline"
       id="path-effect1731"
       is_visible="true"
       lpeversion="1"
       weight="33.333333"
       steps="2"
       helper_size="0"
       apply_no_weight="true"
       apply_with_weight="true"
       only_selected="false" /><inkscape:path-effect
       effect="bspline"
       id="path-effect1727"
       is_visible="true"
       lpeversion="1"
       weight="33.333333"
       steps="2"
       helper_size="0"
       apply_no_weight="true"
       apply_with_weight="true"
       only_selected="false" /><inkscape:path-effect
       effect="bspline"
       id="path-effect1723"
       is_visible="true"
       lpeversion="1"
       weight="33.333333"
       steps="2"
       helper_size="0"
       apply_no_weight="true"
       apply_with_weight="true"
       only_selected="false" /><inkscape:path-effect
       effect="bspline"
       id="path-effect1719"
       is_visible="true"
       lpeversion="1"
       weight="33.333333"
       steps="2"
       helper_size="0"
       apply_no_weight="true"
       apply_with_weight="true"
       only_selected="false" /><inkscape:path-effect
       effect="bspline"
       id="path-effect1715"
       is_visible="true"
       lpeversion="1"
       weight="33.333333"
       steps="2"
       helper_size="0"
       apply_no_weight="true"
       apply_with_weight="true"
       only_selected="false" /><inkscape:path-effect
       effect="bspline"
       id="path-effect1711"
       is_visible="true"
       lpeversion="1"
       weight="33.333333"
       steps="2"
       helper_size="0"
       apply_no_weight="true"
       apply_with_weight="true"
       only_selected="false" /><inkscape:path-effect
       effect="bspline"
       id="path-effect1707"
       is_visible="true"
       lpeversion="1"
       weight="33.333333"
       steps="2"
       helper_size="0"
       apply_no_weight="true"
       apply_with_weight="true"
       only_selected="false" /><inkscape:path-effect
       effect="bspline"
       id="path-effect1699"
       is_visible="true"
       lpeversion="1"
       weight="33.333333"
       steps="2"
       helper_size="0"
       apply_no_weight="true"
       apply_with_weight="true"
       only_selected="false" /><inkscape:path-effect
       effect="bspline"
       id="path-effect1695"
       is_visible="true"
       lpeversion="1"
       weight="33.333333"
       steps="2"
       helper_size="0"
       apply_no_weight="true"
       apply_with_weight="true"
       only_selected="false" /><inkscape:path-effect
       effect="bspline"
       id="path-effect1691"
       is_visible="true"
       lpeversion="1"
       weight="33.333333"
       steps="2"
       helper_size="0"
       apply_no_weight="true"
       apply_with_weight="true"
       only_selected="false" /><inkscape:path-effect
       effect="bspline"
       id="path-effect1687"
       is_visible="true"
       lpeversion="1"
       weight="33.333333"
       steps="2"
       helper_size="0"
       apply_no_weight="true"
       apply_with_weight="true"
       only_selected="false" /><inkscape:path-effect
       effect="bspline"
       id="path-effect1683"
       is_visible="true"
       lpeversion="1"
       weight="33.333333"
       steps="2"
       helper_size="0"
       apply_no_weight="true"
       apply_with_weight="true"
       only_selected="false" /><inkscape:path-effect
       effect="bspline"
       id="path-effect1679"
       is_visible="true"
       lpeversion="1"
       weight="33.333333"
       steps="2"
       helper_size="0"
       apply_no_weight="true"
       apply_with_weight="true"
       only_selected="false" /><inkscape:path-effect
       effect="bspline"
       id="path-effect1675"
       is_visible="true"
       lpeversion="1"
       weight="33.333333"
       steps="2"
       helper_size="0"
       apply_no_weight="true"
       apply_with_weight="true"
       only_selected="false" /><inkscape:path-effect
       effect="bspline"
       id="path-effect1671"
       is_visible="true"
       lpeversion="1"
       weight="33.333333"
       steps="2"
       helper_size="0"
       apply_no_weight="true"
       apply_with_weight="true"
       only_selected="false" /><inkscape:path-effect
       effect="bspline"
       id="path-effect1667"
       is_visible="true"
       lpeversion="1"
       weight="33.333333"
       steps="2"
       helper_size="0"
       apply_no_weight="true"
       apply_with_weight="true"
       only_selected="false" /><inkscape:path-effect
       effect="bspline"
       id="path-effect1663"
       is_visible="true"
       lpeversion="1"
       weight="33.333333"
       steps="2"
       helper_size="0"
       apply_no_weight="true"
       apply_with_weight="true"
       only_selected="false" /><inkscape:path-effect
       effect="bspline"
       id="path-effect1659"
       is_visible="true"
       lpeversion="1"
       weight="33.333333"
       steps="2"
       helper_size="0"
       apply_no_weight="true"
       apply_with_weight="true"
       only_selected="false" /><inkscape:path-effect
       effect="bspline"
       id="path-effect1655"
       is_visible="true"
       lpeversion="1"
       weight="33.333333"
       steps="2"
       helper_size="0"
       apply_no_weight="true"
       apply_with_weight="true"
       only_selected="false" /><inkscape:path-effect
       effect="bspline"
       id="path-effect1950"
       is_visible="true"
       lpeversion="1"
       weight="33.333333"
       steps="2"
       helper_size="0"
       apply_no_weight="true"
       apply_with_weight="true"
       only_selected="false" /><inkscape:path-effect
       effect="bspline"
       id="path-effect1944"
       is_visible="true"
       lpeversion="1"
       weight="33.333333"
       steps="2"
       helper_size="0"
       apply_no_weight="true"
       apply_with_weight="true"
       only_selected="false" /><inkscape:path-effect
       effect="perspective-envelope"
       up_left_point="619.53336,316.14233"
       up_right_point="664.75799,342.25279"
       down_left_point="619.53336,368.36325"
       down_right_point="664.75799,394.47369"
       id="path-effect1937"
       is_visible="true"
       lpeversion="1"
       deform_type="perspective"
       horizontal_mirror="false"
       vertical_mirror="false"
       overflow_perspective="false" /><inkscape:path-effect
       effect="perspective-envelope"
       up_left_point="649.19332,302.19987"
       up_right_point="694.41795,328.31033"
       down_left_point="649.19332,354.42079"
       down_right_point="694.41795,380.53123"
       id="path-effect1933"
       is_visible="true"
       lpeversion="1"
       deform_type="perspective"
       horizontal_mirror="false"
       vertical_mirror="false"
       overflow_perspective="false" /><inkscape:path-effect
       effect="perspective-envelope"
       up_left_point="645.4895,306.95849"
       up_right_point="690.71413,333.06895"
       down_left_point="645.4895,359.17941"
       down_right_point="690.71413,385.28985"
       id="path-effect1926"
       is_visible="true"
       lpeversion="1"
       deform_type="perspective"
       horizontal_mirror="false"
       vertical_mirror="false"
       overflow_perspective="false" /><inkscape:path-effect
       effect="perspective-envelope"
       up_left_point="619.53336,316.14233"
       up_right_point="664.75799,342.25279"
       down_left_point="619.53336,368.36325"
       down_right_point="664.75799,394.47369"
       id="path-effect1922"
       is_visible="true"
       lpeversion="1"
       deform_type="perspective"
       horizontal_mirror="false"
       vertical_mirror="false"
       overflow_perspective="false" /><inkscape:path-effect
       effect="perspective-envelope"
       up_left_point="645.4895,306.95849"
       up_right_point="690.71413,333.06895"
       down_left_point="645.4895,359.17941"
       down_right_point="690.71413,385.28985"
       id="path-effect1918"
       is_visible="true"
       lpeversion="1"
       deform_type="perspective"
       horizontal_mirror="false"
       vertical_mirror="false"
       overflow_perspective="false" /><inkscape:path-effect
       effect="bspline"
       id="path-effect1091"
       is_visible="true"
       lpeversion="1"
       weight="33.333333"
       steps="2"
       helper_size="0"
       apply_no_weight="true"
       apply_with_weight="true"
       only_selected="false" /><inkscape:path-effect
       effect="bspline"
       id="path-effect1087"
       is_visible="true"
       lpeversion="1"
       weight="33.333333"
       steps="2"
       helper_size="0"
       apply_no_weight="true"
       apply_with_weight="true"
       only_selected="false" /><inkscape:path-effect
       effect="bspline"
       id="path-effect1083"
       is_visible="true"
       lpeversion="1"
       weight="33.333333"
       steps="2"
       helper_size="0"
       apply_no_weight="true"
       apply_with_weight="true"
       only_selected="false" /><inkscape:path-effect
       effect="bspline"
       id="path-effect1079"
       is_visible="true"
       lpeversion="1"
       weight="33.333333"
       steps="2"
       helper_size="0"
       apply_no_weight="true"
       apply_with_weight="true"
       only_selected="false" /><inkscape:path-effect
       effect="bspline"
       id="path-effect1075"
       is_visible="true"
       lpeversion="1"
       weight="33.333333"
       steps="2"
       helper_size="0"
       apply_no_weight="true"
       apply_with_weight="true"
       only_selected="false" /><inkscape:path-effect
       effect="bspline"
       id="path-effect1071"
       is_visible="true"
       lpeversion="1"
       weight="33.333333"
       steps="2"
       helper_size="0"
       apply_no_weight="true"
       apply_with_weight="true"
       only_selected="false" /><inkscape:path-effect
       effect="bspline"
       id="path-effect1067"
       is_visible="true"
       lpeversion="1"
       weight="33.333333"
       steps="2"
       helper_size="0"
       apply_no_weight="true"
       apply_with_weight="true"
       only_selected="false" /><inkscape:path-effect
       effect="bspline"
       id="path-effect1063"
       is_visible="true"
       lpeversion="1"
       weight="33.333333"
       steps="2"
       helper_size="0"
       apply_no_weight="true"
       apply_with_weight="true"
       only_selected="false" /><inkscape:path-effect
       effect="bspline"
       id="path-effect1059"
       is_visible="true"
       lpeversion="1"
       weight="33.333333"
       steps="2"
       helper_size="0"
       apply_no_weight="true"
       apply_with_weight="true"
       only_selected="false" /><inkscape:path-effect
       effect="bspline"
       id="path-effect1055"
       is_visible="true"
       lpeversion="1"
       weight="33.333333"
       steps="2"
       helper_size="0"
       apply_no_weight="true"
       apply_with_weight="true"
       only_selected="false" /><inkscape:path-effect
       effect="bspline"
       id="path-effect1051"
       is_visible="true"
       lpeversion="1"
       weight="33.333333"
       steps="2"
       helper_size="0"
       apply_no_weight="true"
       apply_with_weight="true"
       only_selected="false" /><inkscape:path-effect
       effect="bspline"
       id="path-effect1047"
       is_visible="true"
       lpeversion="1"
       weight="33.333333"
       steps="2"
       helper_size="0"
       apply_no_weight="true"
       apply_with_weight="true"
       only_selected="false" /><inkscape:path-effect
       effect="bspline"
       id="path-effect1043"
       is_visible="true"
       lpeversion="1"
       weight="33.333333"
       steps="2"
       helper_size="0"
       apply_no_weight="true"
       apply_with_weight="true"
       only_selected="false" /><inkscape:path-effect
       effect="bspline"
       id="path-effect1039"
       is_visible="true"
       lpeversion="1"
       weight="33.333333"
       steps="2"
       helper_size="0"
       apply_no_weight="true"
       apply_with_weight="true"
       only_selected="false" /><inkscape:path-effect
       effect="bspline"
       id="path-effect1035"
       is_visible="true"
       lpeversion="1"
       weight="33.333333"
       steps="2"
       helper_size="0"
       apply_no_weight="true"
       apply_with_weight="true"
       only_selected="false" /><inkscape:path-effect
       effect="bspline"
       id="path-effect1031"
       is_visible="true"
       lpeversion="1"
       weight="33.333333"
       steps="2"
       helper_size="0"
       apply_no_weight="true"
       apply_with_weight="true"
       only_selected="false" /><inkscape:path-effect
       effect="bspline"
       id="path-effect1445"
       is_visible="true"
       lpeversion="1"
       weight="33.333333"
       steps="2"
       helper_size="0"
       apply_no_weight="true"
       apply_with_weight="true"
       only_selected="false" /><inkscape:path-effect
       effect="bspline"
       id="path-effect1437"
       is_visible="true"
       lpeversion="1"
       weight="33.333333"
       steps="2"
       helper_size="0"
       apply_no_weight="true"
       apply_with_weight="true"
       only_selected="false" /><inkscape:path-effect
       effect="bspline"
       id="path-effect1433"
       is_visible="true"
       lpeversion="1"
       weight="33.333333"
       steps="2"
       helper_size="0"
       apply_no_weight="true"
       apply_with_weight="true"
       only_selected="false" /><inkscape:path-effect
       effect="bspline"
       id="path-effect1429"
       is_visible="true"
       lpeversion="1"
       weight="33.333333"
       steps="2"
       helper_size="0"
       apply_no_weight="true"
       apply_with_weight="true"
       only_selected="false" /><inkscape:path-effect
       effect="bspline"
       id="path-effect1425"
       is_visible="true"
       lpeversion="1"
       weight="33.333333"
       steps="2"
       helper_size="0"
       apply_no_weight="true"
       apply_with_weight="true"
       only_selected="false" /><inkscape:path-effect
       effect="bspline"
       id="path-effect1421"
       is_visible="true"
       lpeversion="1"
       weight="33.333333"
       steps="2"
       helper_size="0"
       apply_no_weight="true"
       apply_with_weight="true"
       only_selected="false" /><inkscape:path-effect
       effect="bspline"
       id="path-effect1417"
       is_visible="true"
       lpeversion="1"
       weight="33.333333"
       steps="2"
       helper_size="0"
       apply_no_weight="true"
       apply_with_weight="true"
       only_selected="false" /><inkscape:path-effect
       effect="bspline"
       id="path-effect5120"
       is_visible="true"
       lpeversion="1"
       weight="33.333333"
       steps="2"
       helper_size="0"
       apply_no_weight="true"
       apply_with_weight="true"
       only_selected="false" /><inkscape:path-effect
       effect="perspective-envelope"
       up_left_point="676.69212,328.38913"
       up_right_point="721.91675,354.49959"
       down_left_point="676.69212,380.61005"
       down_right_point="721.91675,406.72049"
       id="path-effect5103"
       is_visible="true"
       lpeversion="1"
       deform_type="perspective"
       horizontal_mirror="false"
       vertical_mirror="false"
       overflow_perspective="false" /><inkscape:path-effect
       effect="perspective-envelope"
       up_left_point="325.65252,227.92683"
       up_right_point="370.87715,254.03729"
       down_left_point="325.65252,280.14775"
       down_right_point="370.87715,306.25819"
       id="path-effect5099"
       is_visible="true"
       lpeversion="1"
       deform_type="perspective"
       horizontal_mirror="false"
       vertical_mirror="false"
       overflow_perspective="false" /><clipPath
       clipPathUnits="userSpaceOnUse"
       id="clipPath54"><path
         d="M 0,0 H 14033 V 9917 H 0 Z"
         clip-rule="evenodd"
         id="path52" /></clipPath><clipPath
       clipPathUnits="userSpaceOnUse"
       id="clipPath68"><path
         d="M 0,0 H 14033 V 9917 H 0 Z"
         clip-rule="evenodd"
         id="path66" /></clipPath><clipPath
       clipPathUnits="userSpaceOnUse"
       id="clipPath74"><path
         d="M 0,0 H 14025.471 V 9917 H 0 Z"
         clip-rule="evenodd"
         id="path72" /></clipPath><radialGradient
       fx="270.58316"
       fy="33.899986"
       cx="270.58316"
       cy="33.899986"
       r="19.571428"
       gradientUnits="userSpaceOnUse"
       gradientTransform="matrix(9.4672653,2.3116232,-6.3746509,26.1074,9806.732,6756.3586)"
       spreadMethod="pad"
       id="radialGradient590"><stop
         style="stop-opacity:1;stop-color:#ff6d0f"
         offset="0"
         id="stop586" /><stop
         style="stop-opacity:1;stop-color:#ff1000"
         offset="1"
         id="stop588" /></radialGradient><radialGradient
       fx="282.64584"
       fy="29.149046"
       cx="282.64584"
       cy="29.149046"
       r="19.571428"
       gradientUnits="userSpaceOnUse"
       gradientTransform="matrix(5.2532975,8.2082626,-8.7737229,5.6151915,11027.888,5843.4233)"
       spreadMethod="pad"
       id="radialGradient604"><stop
         style="stop-opacity:1;stop-color:#71b2f8"
         offset="0"
         id="stop600" /><stop
         style="stop-opacity:1;stop-color:#002795"
         offset="1"
         id="stop602" /></radialGradient><clipPath
       clipPathUnits="userSpaceOnUse"
       id="clipPath720"><path
         d="M 0,0 H 14033 V 9917 H 0 Z"
         clip-rule="evenodd"
         id="path718" /></clipPath><clipPath
       clipPathUnits="userSpaceOnUse"
       id="clipPath738"><path
         d="M 0,0 H 14033 V 9917 H 0 Z"
         clip-rule="evenodd"
         id="path736" /></clipPath><clipPath
       clipPathUnits="userSpaceOnUse"
       id="clipPath744"><path
         d="m 6993.8462,8851.2847 h 37.779 v 434.4591 h -37.779 z"
         clip-rule="evenodd"
         id="path742" /></clipPath><clipPath
       clipPathUnits="userSpaceOnUse"
       id="clipPath758"><path
         d="M 0,0 H 14033 V 9917 H 0 Z"
         clip-rule="evenodd"
         id="path756" /></clipPath><clipPath
       clipPathUnits="userSpaceOnUse"
       id="clipPath978"><path
         d="M 0,0 H 14033 V 9917 H 0 Z"
         clip-rule="evenodd"
         id="path976" /></clipPath><clipPath
       clipPathUnits="userSpaceOnUse"
       id="clipPath984"><path
         d="m 8218.0241,5519.0323 h 37.7791 v 434.459 h -37.7791 z"
         clip-rule="evenodd"
         id="path982" /></clipPath><clipPath
       clipPathUnits="userSpaceOnUse"
       id="clipPath998"><path
         d="M 0,0 H 14033 V 9917 H 0 Z"
         clip-rule="evenodd"
         id="path996" /></clipPath></defs><sodipodi:namedview
     pagecolor="#ffffff"
     bordercolor="#666666"
     borderopacity="1"
     objecttolerance="10"
     gridtolerance="10"
     guidetolerance="10"
     inkscape:pageopacity="0"
     inkscape:pageshadow="2"
     inkscape:window-width="1366"
     inkscape:window-height="704"
     id="namedview30"
     showgrid="false"
     inkscape:zoom="0.24154531"
     inkscape:cx="850.14748"
     inkscape:cy="413.93734"
     inkscape:window-x="0"
     inkscape:window-y="0"
     inkscape:window-maximized="1"
     inkscape:current-layer="layer4"
     inkscape:snap-intersection-paths="false"
     inkscape:snap-global="true"
     inkscape:document-rotation="0"
     inkscape:object-nodes="true"
     inkscape:snap-bbox="true"
     inkscape:snap-nodes="true"
     inkscape:bbox-nodes="false"
     inkscape:snap-bbox-edge-midpoints="false"
     inkscape:object-paths="false"><inkscape:grid
       type="axonomgrid"
       id="grid5047" /></sodipodi:namedview><g
     inkscape:groupmode="layer"
     id="layer1"
     inkscape:label="outline"
     style="display:inline"><g
       inkscape:groupmode="layer"
       id="layer4"
       inkscape:label="bg" /><g
       inkscape:groupmode="layer"
       id="layer2"
       inkscape:label="base outline"
       style="display:inline"><path
         style="fill:#55b5ff;fill-opacity:1;stroke:none;stroke-width:9.99999;stroke-linecap:butt;stroke-linejoin:miter;stroke-miterlimit:4;stroke-dasharray:none;stroke-opacity:1"
         d="M 267.138,-1.1394336e-4 534.2762,154.2322 467.49165,192.79027 267.138,77.11604 66.78436,192.79027 -1.9951172e-4,154.2322 267.138,-1.1394336e-4"
         id="path2773" /><path
         style="fill:#0060aa;fill-opacity:1;stroke:none;stroke-width:9.99999;stroke-linecap:butt;stroke-linejoin:miter;stroke-miterlimit:4;stroke-dasharray:none;stroke-opacity:1"
         d="M -1.9951172e-4,154.2322 66.78436,192.79027 V 424.13874 L 267.138,539.81297 v 77.11616 L -1.9951172e-4,462.69682 V 154.2322"
         id="path2775" /><path
         style="fill:#29a2ff;fill-opacity:1;stroke:none;stroke-width:9.99999;stroke-linecap:butt;stroke-linejoin:miter;stroke-miterlimit:4;stroke-dasharray:none;stroke-opacity:1"
         d="M 267.138,539.81297 467.49165,424.13874 V 192.79027 L 534.2762,154.2322 V 462.69682 L 267.138,616.92913 Z"
         id="path2777" /></g><g
       inkscape:groupmode="layer"
       id="layer3"
       inkscape:label="back outline"
       style="display:inline"><path
         style="fill:#29a2ff;fill-opacity:1;stroke:none;stroke-width:0.999999px;stroke-linecap:butt;stroke-linejoin:miter;stroke-opacity:1"
         d="M 66.78436,192.79027 267.138,77.11604 V 308.46451 L 66.78436,424.13874 Z"
         id="path2781" /><path
         style="fill:#0060aa;fill-opacity:1;stroke:none;stroke-width:0.999999px;stroke-linecap:butt;stroke-linejoin:miter;stroke-opacity:1"
         d="M 267.138,77.11604 467.49165,192.79027 V 424.13874 L 267.138,308.46451 Z"
         id="path2783" /><path
         style="fill:#55b5ff;fill-opacity:1;stroke:none;stroke-width:0.999999px;stroke-linecap:butt;stroke-linejoin:miter;stroke-opacity:1"
         d="M 66.78436,424.13874 267.138,308.46451 467.49165,424.13874 267.138,539.81297 Z"
         id="path2785" /></g><g
       inkscape:groupmode="layer"
       id="layer5"
       inkscape:label="F outline"
       style="display:inline"><path
         style="fill:#aa0000;fill-opacity:1;stroke:#000000;stroke-width:0.999999px;stroke-linecap:butt;stroke-linejoin:miter;stroke-opacity:1"
         d="m 180.31809,258.33901 -33.39227,-19.27904 v 77.11615 l 33.39227,19.27904 z"
         id="path2812" /><path
         style="fill:#ff2a2a;fill-opacity:1;stroke:#000000;stroke-width:0.999999px;stroke-linecap:butt;stroke-linejoin:miter;stroke-opacity:1"
         d="m 180.31809,258.33901 60.10609,-34.70227 v 77.11615 l -60.10609,34.70227 z"
         id="path2814" /><path
         style="fill:#aa0000;fill-opacity:1;stroke:#000000;stroke-width:0.999999px;stroke-linecap:butt;stroke-linejoin:miter;stroke-opacity:1"
         d="M 180.31809,258.33901 240.42418,223.63674 207.0319,204.3577 146.92582,239.05997 Z"
         id="path2820" /><path
         style="fill:#aa0000;fill-opacity:1;stroke:#000000;stroke-width:0.999999px;stroke-linecap:butt;stroke-linejoin:miter;stroke-opacity:1"
         d="m 146.92582,146.52058 33.39227,19.27904 v 77.11616 l -33.39227,-19.27904 z"
         id="path2806" /><path
         style="fill:#ff5555;stroke:#000000;stroke-width:0.999999px;stroke-linecap:butt;stroke-linejoin:miter;stroke-opacity:1"
         d="m 66.78436,192.79027 33.39227,19.27904 66.78455,-38.55807 -33.39228,-19.27904 z"
         id="path2788" /><path
         style="fill:#aa0000;stroke:#000000;stroke-width:0.999999px;stroke-linecap:butt;stroke-linejoin:miter;stroke-opacity:1"
         d="m 66.78436,192.79027 v 231.34847 l 33.39227,19.27904 V 212.06931 Z"
         id="path2790" /><path
         style="fill:#ff2a2a;stroke:#000000;stroke-width:0.999999px;stroke-linecap:butt;stroke-linejoin:miter;stroke-opacity:1"
         d="m 166.96118,173.51124 -66.78455,38.55807 v 231.34847 l 66.78455,-38.55808 z"
         id="path2792" /><path
         style="fill:#ff5555;fill-opacity:1;stroke:#000000;stroke-width:0.999999px;stroke-linecap:butt;stroke-linejoin:miter;stroke-opacity:1"
         d="M 146.92582,146.52058 180.31809,165.79962 300.53028,96.39508 267.138,77.11604 Z"
         id="path2796" /><path
         style="fill:#ff2a2a;fill-opacity:1;stroke:#000000;stroke-width:0.999999px;stroke-linecap:butt;stroke-linejoin:miter;stroke-opacity:1"
         d="m 180.31809,165.79962 v 77.11616 L 300.53028,173.51124 V 96.39508 Z"
         id="path2800" /></g><g
       inkscape:groupmode="layer"
       id="layer6"
       inkscape:label="gear"
       style="display:inline;mix-blend-mode:normal"><g
         inkscape:groupmode="layer"
         id="layer9"
         inkscape:label="face"
         style="display:inline"><path
           style="fill:#666666;stroke:#000000;stroke-width:0.999999;stroke-linecap:butt;stroke-linejoin:miter;stroke-miterlimit:4;stroke-dasharray:none;stroke-opacity:1"
           d="m 299.28669,226.631 c 5.2965,-3.18931 10.59242,-6.37826 15.88863,-9.56739 0,0 2.35893,9.22294 2.35893,9.22294 0,0 -5.07303,11.21316 -5.07303,11.21316 0,0 -13.17452,-10.86871 -13.17452,-10.86871"
           id="path1089"
           inkscape:path-effect="#path-effect1091"
           inkscape:original-d="m 299.28669,226.631 c 5.29721,-3.18813 15.88863,-9.56739 15.88863,-9.56739 l 2.35893,9.22294 -5.07303,11.21316 L 299.2867,226.631"
           sodipodi:nodetypes="ccccc" /><path
           style="fill:#4d4d4d;stroke:#000000;stroke-width:0.999999;stroke-linecap:butt;stroke-linejoin:miter;stroke-miterlimit:4;stroke-dasharray:none;stroke-opacity:1"
           d="m 317.53425,272.35791 c 0,0 -1.17029,-3.93806 -1.17029,-3.93806 0,0 -11.18859,5.81157 -11.18859,5.81157"
           id="path1081"
           inkscape:path-effect="#path-effect1083"
           inkscape:original-d="m 317.53425,272.35791 -1.17029,-3.93806 -11.18859,5.81157"
           sodipodi:nodetypes="ccc" /><path
           style="fill:#4d4d4d;stroke:#000000;stroke-width:0.999999;stroke-linecap:butt;stroke-linejoin:miter;stroke-miterlimit:4;stroke-dasharray:none;stroke-opacity:1"
           d="m 328.42664,291.22409 c 0,0 -7.20034,9.1848 -7.20034,9.1848 0,0 11.10882,-6.59185 11.10882,-6.59185 0,0 -3.90848,-2.59295 -3.90848,-2.59295 z"
           id="path1077"
           inkscape:path-effect="#path-effect1079"
           inkscape:original-d="m 328.42664,291.22409 -7.20034,9.1848 11.10882,-6.59185 z"
           sodipodi:nodetypes="cccc" /><path
           style="fill:#b3b3b3;stroke:#000000;stroke-width:0.999999;stroke-linecap:butt;stroke-linejoin:miter;stroke-miterlimit:4;stroke-dasharray:none;stroke-opacity:1"
           d="m 371.79202,322.44922 c 0,0 4.30879,9.81163 4.30879,9.81163 0,0 -24.00886,14.50367 -24.00886,14.50367 2.0379,-2.25284 4.07575,-4.50564 5.252,-7.29787 1.17625,-2.79223 1.49096,-6.12547 1.8056,-9.45787"
           id="path1073"
           inkscape:path-effect="#path-effect1075"
           inkscape:original-d="m 371.79202,322.44922 4.30879,9.81163 -24.00886,14.50367 c 0,0 4.0768,-4.50469 6.11369,-6.75853 0.31564,-3.33147 0.94391,-9.99721 0.94391,-9.99721"
           sodipodi:nodetypes="ccccc" /><path
           style="fill:#808080;stroke:#000000;stroke-width:0.999999;stroke-linecap:butt;stroke-linejoin:miter;stroke-miterlimit:4;stroke-dasharray:none;stroke-opacity:1"
           d="m 356.07821,313.04657 c 0,0 12.2474,1.2132 12.2474,1.2132 0,0 3.46641,8.18945 3.46641,8.18945 0,0 -12.64247,7.55956 -12.64247,7.55956 0,0 -3.07134,-16.96221 -3.07134,-16.96221"
           id="path1069"
           inkscape:path-effect="#path-effect1071"
           inkscape:original-d="m 356.07821,313.04657 12.2474,1.2132 3.46641,8.18945 -12.64247,7.55956 -3.07134,-16.96221"
           sodipodi:nodetypes="ccccc" /><path
           style="fill:#e6e6e6;fill-opacity:1;stroke:#000000;stroke-width:0.999999;stroke-linecap:butt;stroke-linejoin:miter;stroke-miterlimit:4;stroke-dasharray:none;stroke-opacity:1"
           d="m 390.53163,322.95303 c 2.30916,4.25062 4.61897,8.50243 5.87767,12.5649 1.2587,4.06247 1.46746,7.93573 1.67629,11.81012 0,0 33.39224,-19.27904 33.39224,-19.27904 -0.66594,-5.16928 -1.33173,-10.33744 -2.5563,-14.3032 -1.22456,-3.96577 -3.00904,-6.72912 -4.79281,-9.49137 0,0 -33.59709,18.69859 -33.59709,18.69859 z"
           id="path1065"
           inkscape:path-effect="#path-effect1067"
           inkscape:original-d="m 390.53163,322.95303 c 0,0 4.61932,8.50224 6.92748,12.75186 0.20983,3.87546 0.62648,11.62316 0.62648,11.62316 l 33.39224,-19.27904 c 0,0 -1.33088,-10.33755 -1.99781,-15.50783 -1.7828,-2.7613 -5.3513,-8.28674 -5.3513,-8.28674 z"
           sodipodi:nodetypes="ccccccc" /><path
           style="fill:#808080;stroke:#000000;stroke-width:0.999999;stroke-linecap:butt;stroke-linejoin:miter;stroke-miterlimit:4;stroke-dasharray:none;stroke-opacity:1"
           d="m 379.21804,307.97104 c 3.77204,4.99512 7.54239,9.98799 11.31359,14.98199 0,0 33.59709,-18.69859 33.59709,-18.69859 0,0 -29.32851,-5.03362 -29.32851,-5.03362 0,0 -15.58221,8.75022 -15.58221,8.75022"
           id="path1061"
           inkscape:path-effect="#path-effect1063"
           inkscape:original-d="m 379.21804,307.97104 c 3.7722,4.995 11.31359,14.98199 11.31359,14.98199 l 33.59709,-18.69859 -29.32851,-5.03362 -15.58221,8.75022"
           sodipodi:nodetypes="ccccc" /><path
           style="fill:#ececec;fill-opacity:1;stroke:#000000;stroke-width:0.999999;stroke-linecap:butt;stroke-linejoin:miter;stroke-miterlimit:4;stroke-dasharray:none;stroke-opacity:1"
           d="m 379.39633,262.1494 c 0,0 5.07942,16.48389 5.07942,16.48389 0,0 33.28954,-18.96234 33.28954,-18.96234 0,0 -4.98778,-16.6738 -4.98778,-16.6738 0,0 -33.38118,19.15225 -33.38118,19.15225 z"
           id="path1037"
           inkscape:path-effect="#path-effect1039"
           inkscape:original-d="m 379.39633,262.1494 c 0,0 5.07942,16.48389 5.07942,16.48389 0,0 33.28954,-18.96234 33.28954,-18.96234 0,0 -4.98778,-16.6738 -4.98778,-16.6738 0,0 -33.38118,19.15225 -33.38118,19.15225 z" /><path
           style="fill:#666666;stroke:#000000;stroke-width:0.999999;stroke-linecap:butt;stroke-linejoin:miter;stroke-miterlimit:4;stroke-dasharray:none;stroke-opacity:1"
           d="m 328.89315,219.94636 c 0,0 12.1961,1.16235 12.1961,1.16235 0,0 12.03402,-10.71869 12.03402,-10.71869 0,0 -15.06409,0.13108 -15.06409,0.13108 0,0 -9.16603,9.42526 -9.16603,9.42526 z"
           id="path1033"
           inkscape:path-effect="#path-effect1035"
           inkscape:original-d="m 328.89315,219.94636 c 0,0 12.1961,1.16235 12.1961,1.16235 0,0 12.03402,-10.71869 12.03402,-10.71869 0,0 -15.06409,0.13108 -15.06409,0.13108 0,0 -9.16603,9.42526 -9.16603,9.42526 z" /><path
           style="fill:#999999;stroke:#000000;stroke-width:0.999999;stroke-linecap:butt;stroke-linejoin:miter;stroke-miterlimit:4;stroke-dasharray:none;stroke-opacity:1"
           d="m 321.10866,202.70897 c 0,0 33.783,-19.60152 33.783,-19.60152 0,0 7.05797,17.40662 7.05797,17.40662 0,0 -33.40251,19.56324 -33.40251,19.56324 0,0 -7.43846,-17.36834 -7.43846,-17.36834 z"
           id="path1029"
           inkscape:path-effect="#path-effect1031"
           inkscape:original-d="m 321.10866,202.70897 c 0,0 33.783,-19.60152 33.783,-19.60152 0,0 7.05797,17.40662 7.05797,17.40662 0,0 -33.40251,19.56324 -33.40251,19.56324 0,0 -7.43846,-17.36834 -7.43846,-17.36834 z" /><path
           style="fill:#e5e5e5;fill-opacity:1;stroke:#000000;stroke-width:0.999999;stroke-linecap:butt;stroke-linejoin:miter;stroke-miterlimit:4;stroke-dasharray:none;stroke-opacity:1"
           d="m 303.61994,183.53339 c 0,0 33.21504,-19.21174 33.21504,-19.21174 3.18488,2.10818 6.37092,4.21713 9.35142,7.34167 2.9805,3.12454 5.75612,7.26374 8.53257,11.40417 0,0 -33.61031,19.64149 -33.61031,19.64149 -2.59662,-3.93726 -5.19243,-7.87328 -8.1071,-11.06944 -2.91467,-3.19615 -6.14867,-5.65155 -9.38162,-8.10615 z"
           id="path1415"
           inkscape:path-effect="#path-effect1417"
           inkscape:original-d="m 303.61994,183.53339 33.21504,-19.21174 c 0,0 6.37076,4.21737 9.55464,6.32455 2.7775,4.14151 8.32935,12.42129 8.32935,12.42129 l -33.61031,19.64149 c 0,0 -5.19219,-7.87344 -7.78987,-11.81179 -3.23202,-2.45365 -9.69885,-7.3638 -9.69885,-7.3638 z"
           sodipodi:nodetypes="ccccccc" /><path
           style="fill:#e6e6e6;stroke:#000000;stroke-width:0.999999;stroke-linecap:butt;stroke-linejoin:miter;stroke-miterlimit:4;stroke-dasharray:none;stroke-opacity:1"
           d="m 389.47048,210.82559 c 0,0 -33.39227,19.27904 -33.39227,19.27904 0,0 12.2474,12.92888 12.2474,12.92888 0,0 32.53753,-19.86753 32.53753,-19.86753 0,0 -11.39266,-12.34039 -11.39266,-12.34039 z"
           id="path1435"
           inkscape:path-effect="#path-effect1437"
           inkscape:original-d="m 389.47048,210.82559 c 0,0 -33.39227,19.27904 -33.39227,19.27904 0,0 12.2474,12.92888 12.2474,12.92888 0,0 32.53753,-19.86753 32.53753,-19.86753 0,0 -11.39266,-12.34039 -11.39266,-12.34039 z" /><path
           style="fill:#e6e6e6;fill-opacity:1;stroke:#000000;stroke-width:0.999999;stroke-linecap:butt;stroke-linejoin:miter;stroke-miterlimit:4;stroke-dasharray:none;stroke-opacity:1"
           d="m 398.08555,244.32905 33.39228,-19.27904 c -0.92717,3.79523 -1.85451,7.59117 -2.83053,10.04106 -0.97602,2.44989 -2.00096,3.55504 -3.02595,4.66024 l -33.85203,20.15226 c 1.79065,-2.01935 3.45953,-5.3266 4.43562,-7.7764 0.97608,-2.44981 1.7191,-4.91704 1.88061,-7.79812 z"
           id="path1441"
           sodipodi:nodetypes="ccsccsc" /><path
           style="fill:#f9f9f9;stroke:#000000;stroke-width:0.999999;stroke-linecap:butt;stroke-linejoin:miter;stroke-miterlimit:4;stroke-dasharray:none;stroke-opacity:1"
           d="M 351.98912,192.21154 385.3814,172.9325 c 2.31107,5.13044 4.62268,10.26209 5.7748,14.31397 1.15213,4.05187 1.14587,7.02425 1.1396,9.9977 l -33.39228,19.27905 c 0.0377,-3.33341 -1.10507,-7.39813 -2.25724,-11.45002 -1.15212,-4.05189 -2.31468,-8.09118 -4.65717,-12.86166 z"
           id="path1419"
           sodipodi:nodetypes="ccsccssc" /><path
           style="fill:#f2f2f2;stroke:#000000;stroke-width:0.999999;stroke-linecap:butt;stroke-linejoin:miter;stroke-miterlimit:4;stroke-dasharray:none;stroke-opacity:1"
           d="m 375.34469,233.79818 c 0,0 35.66494,-19.9784 35.66494,-19.9784 2.25994,-0.24969 4.52076,-0.49948 7.08072,-0.1025 2.55996,0.39698 5.41831,1.43962 8.27792,2.48272 0,0 -33.39227,19.27904 -33.39227,19.27904 -2.10194,-0.72808 -4.20268,-1.45574 -5.82924,-1.96396 -1.62655,-0.50822 -2.77765,-0.79644 -4.66545,-0.71276 -1.8878,0.0837 -4.51258,0.53984 -7.13662,0.99586 z"
           id="path1423"
           inkscape:path-effect="#path-effect1425"
           inkscape:original-d="m 375.34469,233.79818 35.66494,-19.9784 c 0,0 4.52088,-0.49839 6.77982,-0.74908 2.86066,1.04412 8.57882,3.1293 8.57882,3.1293 L 392.976,235.47904 c 0,0 -4.20288,-1.45515 -6.30582,-2.18423 -1.15015,-0.28724 -2.30125,-0.57547 -3.45337,-0.8647 -2.6231,0.45703 -7.87212,1.36807 -7.87212,1.36807 z"
           sodipodi:nodetypes="cccccccc" /><path
           style="fill:#f9f9f9;fill-opacity:1;stroke:#000000;stroke-width:0.999999;stroke-linecap:butt;stroke-linejoin:miter;stroke-miterlimit:4;stroke-dasharray:none;stroke-opacity:1"
           d="m 392.976,235.47904 c 0,0 5.10955,8.85004 5.10955,8.85004 0,0 33.39228,-19.27907 33.39228,-19.27907 0,0 -5.10956,-8.85001 -5.10956,-8.85001 0,0 -33.39227,19.27904 -33.39227,19.27904 z"
           id="path1427"
           inkscape:path-effect="#path-effect1429"
           inkscape:original-d="m 392.976,235.47904 c 0,0 5.10955,8.85004 5.10955,8.85004 0,0 33.39228,-19.27907 33.39228,-19.27907 0,0 -5.10956,-8.85001 -5.10956,-8.85001 0,0 -33.39227,19.27904 -33.39227,19.27904 z" /><path
           style="fill:#cccccc;stroke:#000000;stroke-width:0.999999;stroke-linecap:butt;stroke-linejoin:miter;stroke-miterlimit:4;stroke-dasharray:none;stroke-opacity:1"
           d="m 358.90355,216.52097 c 11.13107,-6.42578 22.26151,-12.8512 33.39226,-19.2768 0,0 -2.82533,13.58142 -2.82533,13.58142 0,0 -33.39227,19.27904 -33.39227,19.27904 0,0 2.82532,-13.58141 2.82532,-13.58141"
           id="path1431"
           inkscape:path-effect="#path-effect1433"
           inkscape:original-d="m 358.90355,216.52097 c 11.13175,-6.4246 33.39226,-19.2768 33.39226,-19.2768 0,0 -2.82533,13.58142 -2.82533,13.58142 0,0 -33.39227,19.27904 -33.39227,19.27904 0,0 2.82532,-13.58141 2.82532,-13.58141" /><path
           style="fill:#ececec;stroke:#000000;stroke-width:0.999999;stroke-linecap:butt;stroke-linejoin:miter;stroke-miterlimit:4;stroke-dasharray:none;stroke-opacity:1"
           d="m 344.61592,187.50337 c 0,0 7.69703,4.53931 7.69703,4.53931 0,0 33.06845,-19.11018 33.06845,-19.11018 0,0 -7.226,-4.17193 -7.226,-4.17193 0,0 -33.53948,18.7428 -33.53948,18.7428 z"
           id="path1443"
           inkscape:path-effect="#path-effect1445"
           inkscape:original-d="m 344.61592,187.50337 7.69703,4.53931 33.06845,-19.11018 -7.226,-4.17193 z"
           sodipodi:nodetypes="ccccc" /><path
           style="fill:#e6e6e6;stroke:#000000;stroke-width:0.999999;stroke-linecap:butt;stroke-linejoin:miter;stroke-miterlimit:4;stroke-dasharray:none;stroke-opacity:1"
           d="m 397.46555,283.31459 c 0,0 33.39228,-19.27904 33.39228,-19.27904 0,0 -13.09254,-4.3646 -13.09254,-4.3646 0,0 -33.28954,18.96234 -33.28954,18.96234 0,0 12.9898,4.6813 12.9898,4.6813 z"
           id="path1045"
           inkscape:path-effect="#path-effect1047"
           inkscape:original-d="m 397.46555,283.31459 c 0,0 33.39228,-19.27904 33.39228,-19.27904 0,0 -13.09254,-4.3646 -13.09254,-4.3646 0,0 -33.28954,18.96234 -33.28954,18.96234 0,0 12.9898,4.6813 12.9898,4.6813 z" /><path
           style="fill:#f9f9f9;fill-opacity:1;stroke:#000000;stroke-width:0.999999;stroke-linecap:butt;stroke-linejoin:miter;stroke-miterlimit:4;stroke-dasharray:none;stroke-opacity:1"
           d="m 397.46559,283.31459 c 3.29891,2.14893 6.59899,4.29862 9.5317,7.32285 2.9327,3.02422 5.49873,6.92201 8.06558,10.82104 0,0 33.39228,-19.27904 33.39228,-19.27904 -2.87152,-3.89905 -5.74221,-7.79697 -8.67497,-10.82112 -2.93277,-3.02416 -5.9281,-5.17385 -8.92235,-7.32277 0,0 -33.39224,19.27904 -33.39224,19.27904 z"
           id="path1049"
           inkscape:path-effect="#path-effect1051"
           inkscape:original-d="m 397.46559,283.31459 c 0,0 6.59883,4.29887 9.89674,6.4468 2.5679,3.90011 7.70054,11.69709 7.70054,11.69709 0,0 33.39228,-19.27904 33.39228,-19.27904 0,0 -5.74204,-7.79709 -8.61456,-11.69714 -2.99331,-2.14796 -8.98276,-6.44675 -8.98276,-6.44675 0,0 -33.39224,19.27904 -33.39224,19.27904 z" /><path
           style="fill:#f9f9f9;stroke:#000000;stroke-width:0.999999;stroke-linecap:butt;stroke-linejoin:miter;stroke-miterlimit:4;stroke-dasharray:none;stroke-opacity:1"
           d="m 415.06291,301.45848 c 0,0 0.44881,8.73266 0.44881,8.73266 0,0 32.94343,-19.66783 32.94343,-19.66783 0,0 0,-8.34387 0,-8.34387 0,0 -33.39224,19.27904 -33.39224,19.27904 z"
           id="path1053"
           inkscape:path-effect="#path-effect1055"
           inkscape:original-d="m 415.06291,301.45848 0.44881,8.73266 32.94343,-19.66783 v -8.34387 z"
           sodipodi:nodetypes="ccccc" /><path
           style="fill:#4d4d4d;stroke:#000000;stroke-width:0.999999;stroke-linecap:butt;stroke-linejoin:miter;stroke-miterlimit:4;stroke-dasharray:none;stroke-opacity:1"
           d="m 384.15515,296.55575 c 0,0 -4.93711,11.41529 -4.93711,11.41529 0,0 15.58217,-8.75022 15.58217,-8.75022 0,0 -2.00017,-6.32596 -2.00017,-6.32596 0,0 -8.50896,3.86303 -8.50896,3.86303"
           id="path1057"
           inkscape:path-effect="#path-effect1059"
           inkscape:original-d="m 384.15515,296.55575 -4.93711,11.41529 15.58217,-8.75022 -2.00017,-6.32596 -8.50896,3.86303"
           sodipodi:nodetypes="ccccc" /><path
           style="fill:#808080;stroke:#000000;stroke-width:0.999999;stroke-linecap:butt;stroke-linejoin:miter;stroke-miterlimit:4;stroke-dasharray:none;stroke-opacity:1"
           d="m 281.3359,224.12371 c 0,0 29.79939,-16.90098 29.79939,-16.90098 0,0 7.13966,8.79143 7.13966,8.79143 0,0 -18.98825,10.61684 -18.98825,10.61684 -1.56503,-0.99409 -3.1289,-1.98743 -4.79553,-2.52573 -1.66663,-0.5383 -3.43465,-0.62011 -5.64403,-0.54102 -2.20939,0.0791 -4.86074,0.31932 -7.51124,0.55946 z"
           id="path1085"
           inkscape:path-effect="#path-effect1087"
           inkscape:original-d="m 281.3359,224.12371 29.79939,-16.90098 7.13966,8.79143 -18.98825,10.61684 c 0,0 -3.12906,-1.98717 -4.6951,-2.98226 -1.7671,-0.0808 -3.53512,-0.16263 -5.30419,-0.24545 -2.64956,0.24115 -7.95151,0.72042 -7.95151,0.72042 z"
           sodipodi:nodetypes="ccccccc" /></g><g
         inkscape:groupmode="layer"
         id="layer7"
         inkscape:label="front"
         style="display:inline;mix-blend-mode:normal"><path
           style="display:inline;fill:#dddddd;fill-opacity:1;stroke:#000000;stroke-width:0.999999;stroke-linecap:butt;stroke-linejoin:miter;stroke-miterlimit:4;stroke-dasharray:none;stroke-opacity:1"
           d="m 340.67404,304.15297 c 0,0 -2.82533,13.58142 -2.82533,13.58142 0.0259,2.14105 0.0518,4.28306 0.6534,7.15181 0.60165,2.86875 1.77866,6.46481 2.91823,9.44626 1.13957,2.98144 2.24091,5.3469 3.34282,7.7136 0,0 7.226,4.17193 7.226,4.17193 1.72274,-1.80178 3.44543,-3.60349 4.5978,-6.32442 1.15237,-2.72092 1.73455,-6.36242 2.31661,-10.00318 0,0 -2.82532,-16.84382 -2.82532,-16.84382 0,0 12.2474,1.2132 12.2474,1.2132 0,0 7.75313,18.05007 7.75313,18.05007 1.49424,2.41309 2.98917,4.82729 5.80561,7.82193 2.81644,2.99464 6.95347,6.56996 11.09165,10.14628 0,0 5.10955,-2.95 5.10955,-2.95 -0.78326,-5.06713 -1.56634,-10.13304 -2.8251,-14.19559 -1.25877,-4.06255 -2.99414,-7.12156 -4.72886,-10.17943 0,0 -11.31359,-14.98199 -11.31359,-14.98199 0,0 5.07304,-11.21315 5.07304,-11.21315 0,0 13.17451,10.86871 13.17451,10.86871 2.48895,1.23733 4.97905,2.47523 7.91181,2.8375 2.93277,0.36227 6.30869,-0.14967 9.68551,-0.66175 0,0 0,-8.34387 0,-8.34387 -2.95501,-3.94573 -5.90912,-7.89026 -8.84192,-10.91445 -2.9328,-3.0242 -5.84464,-5.12721 -8.7554,-7.22944 0,0 -13.17451,-4.34391 -13.17451,-4.34391 0,0 -5.07304,-17.07099 -5.07304,-17.07099 0,0 12.34262,-2.3795 12.34262,-2.3795 1.46759,-1.77274 2.93507,-3.54535 4.02254,-6.07693 1.08747,-2.53158 1.795,-5.82324 2.50239,-9.11421 0,0 -5.10955,-8.85001 -5.10955,-8.85001 -3.13526,-1.2132 -6.26925,-2.4259 -9.16713,-2.64149 -2.89787,-0.21558 -5.5583,0.56729 -8.21812,1.34998 0,0 -7.26514,8.84598 -7.26514,8.84598 0,0 -12.2474,-12.92888 -12.2474,-12.92888 0,0 2.82532,-13.58141 2.82532,-13.58141 -0.25088,-3.12146 -0.50168,-6.24179 -1.6539,-10.29374 -1.15222,-4.05196 -3.20661,-9.03551 -5.26054,-14.01794 0,0 -7.226,-4.17193 -7.226,-4.17193 -1.82565,1.94293 -3.65129,3.88586 -4.8173,6.33393 -1.16601,2.44807 -1.67208,5.39956 -2.17829,8.35191 0,0 2.90651,18.48558 2.90651,18.48558 0,0 -12.2474,-1.2132 -12.2474,-1.2132 0,0 -7.31798,-17.28885 -7.31798,-17.28885 -2.39579,-3.57181 -4.79076,-7.14239 -7.67939,-10.26417 -2.88862,-3.12177 -6.27134,-5.79393 -9.65302,-8.46527 0,0 -5.10956,2.95001 -5.10956,2.95001 0.59528,4.06755 1.19071,8.13614 2.37256,12.07469 1.18185,3.93854 2.94924,7.74656 4.71723,11.55586 0,0 11.77776,15.72645 11.77776,15.72645 0,0 -5.07303,11.21316 -5.07303,11.21316 0,0 -13.17452,-10.86871 -13.17452,-10.86871 -2.45351,-1.40632 -4.90583,-2.81196 -7.83895,-3.175 -2.93313,-0.36303 -6.3461,0.31818 -9.75837,0.99925 0,0 0,8.34387 0,8.34387 1.91326,2.91726 3.82725,5.83563 6.53015,8.74225 2.7029,2.90663 6.19385,5.80181 9.68596,8.69794 0,0 14.55573,5.04761 14.55573,5.04761 0,0 5.07303,17.07099 5.07303,17.07099 0,0 -12.12493,2.22696 -12.12493,2.22696 -1.92062,2.38479 -3.84129,4.76964 -4.96509,7.32735 -1.1238,2.55771 -1.45061,5.28656 -1.77753,8.01633 0,0 5.10956,8.85001 5.10956,8.85001 2.86181,1.03536 5.72478,2.07115 8.61335,2.2849 2.88856,0.21376 5.8034,-0.39333 8.71906,-1.00059 0,0 7.31798,-8.83878 7.31798,-8.83878 0,0 12.24739,12.92888 12.24739,12.92888 z"
           id="path5118"
           inkscape:path-effect="#path-effect5120"
           inkscape:original-d="m 340.67404,304.15297 c 0,0 -2.82533,13.58142 -2.82533,13.58142 0,0 0.0527,4.28305 0.0776,6.42314 1.17806,3.59722 2.35507,7.19328 3.53111,10.78843 1.10293,2.36774 3.30574,7.1001 3.30574,7.1001 l 7.226,4.17193 c 0,0 3.44645,-3.60252 5.16823,-5.40533 0.58307,-3.63983 1.74618,-10.92227 1.74618,-10.92227 l -2.82532,-16.84382 12.2474,1.2132 7.75313,18.05007 c 0,0 2.98945,4.82712 4.48272,7.23926 4.13927,3.57739 12.41454,10.72895 12.41454,10.72895 l 5.10955,-2.95 c 0,0 -1.56551,-10.13317 -2.34979,-15.2014 -1.73375,-3.05693 -5.20417,-9.17362 -5.20417,-9.17362 l -11.31359,-14.98199 5.07304,-11.21315 13.17451,10.86871 c 0,0 4.97885,2.47563 7.46685,3.71199 3.3779,-0.51109 10.13047,-1.53624 10.13047,-1.53624 v -8.34387 c 0,0 -5.90896,-7.89038 -8.86503,-11.83719 -2.90982,-2.10128 -8.73229,-6.3067 -8.73229,-6.3067 l -13.17451,-4.34391 -5.07304,-17.07099 12.34262,-2.3795 c 0,0 2.93615,-3.54445 4.40277,-5.31823 0.7084,-3.29003 2.12216,-9.87291 2.12216,-9.87291 l -5.10955,-8.85001 c 0,0 -6.26946,-2.42537 -9.40578,-3.63959 -2.65887,0.78371 -7.97947,2.34808 -7.97947,2.34808 l -7.26514,8.84598 -12.2474,-12.92888 2.82532,-13.58141 c 0,0 -0.50076,-6.24186 -0.75265,-9.36438 -2.05297,-4.98153 -6.16179,-14.9473 -6.16179,-14.9473 l -7.226,-4.17193 c 0,0 -3.65026,3.88683 -5.47695,5.8288 -0.50522,2.9534 -1.51864,8.85704 -1.51864,8.85704 l 2.90651,18.48558 -12.2474,-1.2132 -7.31798,-17.28885 c 0,0 -4.79053,-7.14255 -7.18737,-10.71542 -3.38074,-2.67039 -10.14504,-8.01402 -10.14504,-8.01402 l -5.10956,2.95001 c 0,0 1.19154,8.13602 1.78583,12.20265 1.76902,3.81038 5.30396,11.4279 5.30396,11.4279 l 11.77776,15.72645 -5.07303,11.21316 L 299.2867,226.631 c 0,0 -4.90601,-2.81164 -7.36052,-4.21896 -3.41133,0.68209 -10.2368,2.04321 -10.2368,2.04321 v 8.34387 c 0,0 3.82749,5.83547 5.73979,8.75179 3.49318,2.89719 10.47632,8.6884 10.47632,8.6884 l 14.55573,5.04761 5.07303,17.07099 -12.12493,2.22696 c 0,0 -3.8402,4.77052 -5.76186,7.15436 -0.32592,2.73083 -0.98076,8.18932 -0.98076,8.18932 l 5.10956,8.85001 c 0,0 5.72458,2.07171 8.58544,3.10609 2.91671,-0.60627 8.74697,-1.82178 8.74697,-1.82178 l 7.31798,-8.83878 c 0,0 12.24739,12.92888 12.24739,12.92888 z"
           sodipodi:nodetypes="ccccccccccccccccccccccccccccccccccccccccccccccccccccccccccccccccc" /><path
           style="opacity:0.999;fill:#999999;fill-opacity:1;stroke:#000000;stroke-width:0.999999;stroke-miterlimit:4;stroke-dasharray:none"
           id="path5049"
           sodipodi:type="arc"
           sodipodi:cx="352.23367"
           sodipodi:cy="260.63358"
           sodipodi:rx="25.250334"
           sodipodi:ry="25.980961"
           d="m 370.87715,280.14774 c 0,14.4204 -10.12388,20.26543 -22.61231,13.05523 -12.48844,-7.2102 -22.61232,-24.74527 -22.61232,-39.16568 0,-14.42041 10.12388,-20.26543 22.61232,-13.05523 12.48843,7.21021 22.61231,24.74528 22.61231,39.16568 z"
           inkscape:path-effect="#path-effect5099" /><path
           id="path1931"
           style="opacity:0.999;fill:#803300;fill-opacity:1;stroke:#000000;stroke-width:0.999999;stroke-miterlimit:4;stroke-dasharray:none"
           d="m 356.03518,247.08528 c 1.86803,9.39581 7.20965,19.15844 14.11914,26.07227 -1.86804,-9.39581 -7.20966,-19.15844 -14.11914,-26.07227 z" /></g></g></g></svg>
