<?xml version="1.0" encoding="UTF-8" standalone="no"?>
<!-- Created with Inkscape (http://www.inkscape.org/) -->

<svg
   xmlns:dc="http://purl.org/dc/elements/1.1/"
   xmlns:cc="http://creativecommons.org/ns#"
   xmlns:rdf="http://www.w3.org/1999/02/22-rdf-syntax-ns#"
   xmlns:svg="http://www.w3.org/2000/svg"
   xmlns="http://www.w3.org/2000/svg"
   xmlns:sodipodi="http://sodipodi.sourceforge.net/DTD/sodipodi-0.dtd"
   xmlns:inkscape="http://www.inkscape.org/namespaces/inkscape"
   width="250"
   height="252"
   viewBox="0 0 66.145835 66.675004"
   version="1.1"
   id="svg8"
   inkscape:version="0.92.3 (2405546, 2018-03-11)"
   sodipodi:docname="tiger.svg">
  <defs
     id="defs2">
    <inkscape:path-effect
       only_selected="false"
       apply_with_weight="true"
       apply_no_weight="true"
       helper_size="0"
       steps="2"
       weight="33.333333"
       is_visible="true"
       id="path-effect1014"
       effect="bspline" />
    <inkscape:path-effect
       only_selected="false"
       apply_with_weight="true"
       apply_no_weight="true"
       helper_size="0"
       steps="2"
       weight="33.333333"
       is_visible="true"
       id="path-effect1009"
       effect="bspline" />
    <inkscape:path-effect
       only_selected="false"
       apply_with_weight="true"
       apply_no_weight="true"
       helper_size="0"
       steps="2"
       weight="33.333333"
       is_visible="true"
       id="path-effect998"
       effect="bspline" />
    <inkscape:path-effect
       only_selected="false"
       apply_with_weight="true"
       apply_no_weight="true"
       helper_size="0"
       steps="2"
       weight="33.333333"
       is_visible="true"
       id="path-effect987"
       effect="bspline" />
    <inkscape:path-effect
       only_selected="false"
       apply_with_weight="true"
       apply_no_weight="true"
       helper_size="0"
       steps="2"
       weight="33.333333"
       is_visible="true"
       id="path-effect982"
       effect="bspline" />
    <inkscape:path-effect
       only_selected="false"
       apply_with_weight="true"
       apply_no_weight="true"
       helper_size="0"
       steps="2"
       weight="33.333333"
       is_visible="true"
       id="path-effect977"
       effect="bspline" />
    <inkscape:path-effect
       only_selected="false"
       apply_with_weight="true"
       apply_no_weight="true"
       helper_size="0"
       steps="2"
       weight="33.333333"
       is_visible="true"
       id="path-effect972"
       effect="bspline" />
    <inkscape:path-effect
       only_selected="false"
       apply_with_weight="true"
       apply_no_weight="true"
       helper_size="0"
       steps="2"
       weight="33.333333"
       is_visible="true"
       id="path-effect966"
       effect="bspline" />
    <inkscape:path-effect
       only_selected="false"
       apply_with_weight="true"
       apply_no_weight="true"
       helper_size="0"
       steps="2"
       weight="33.333333"
       is_visible="true"
       id="path-effect961"
       effect="bspline" />
    <inkscape:path-effect
       only_selected="false"
       apply_with_weight="true"
       apply_no_weight="true"
       helper_size="0"
       steps="2"
       weight="33.333333"
       is_visible="true"
       id="path-effect956"
       effect="bspline" />
    <inkscape:path-effect
       only_selected="false"
       apply_with_weight="true"
       apply_no_weight="true"
       helper_size="0"
       steps="2"
       weight="33.333333"
       is_visible="true"
       id="path-effect951"
       effect="bspline" />
    <inkscape:path-effect
       effect="bspline"
       id="path-effect889"
       is_visible="true"
       weight="33.333333"
       steps="2"
       helper_size="0"
       apply_no_weight="true"
       apply_with_weight="true"
       only_selected="false" />
    <inkscape:path-effect
       effect="bspline"
       id="path-effect885"
       is_visible="true"
       weight="33.333333"
       steps="2"
       helper_size="0"
       apply_no_weight="true"
       apply_with_weight="true"
       only_selected="false" />
    <inkscape:path-effect
       effect="spiro"
       id="path-effect870"
       is_visible="true" />
    <inkscape:path-effect
       effect="spiro"
       id="path-effect866"
       is_visible="true" />
    <inkscape:path-effect
       effect="spiro"
       id="path-effect862"
       is_visible="true" />
    <inkscape:path-effect
       effect="bspline"
       id="path-effect858"
       is_visible="true"
       weight="33.333333"
       steps="2"
       helper_size="0"
       apply_no_weight="true"
       apply_with_weight="true"
       only_selected="false" />
    <inkscape:path-effect
       effect="bspline"
       id="path-effect840"
       is_visible="true"
       weight="33.333333"
       steps="2"
       helper_size="0"
       apply_no_weight="true"
       apply_with_weight="true"
       only_selected="false" />
    <inkscape:path-effect
       only_selected="false"
       apply_with_weight="true"
       apply_no_weight="true"
       helper_size="0"
       steps="2"
       weight="33.333333"
       is_visible="true"
       id="path-effect836"
       effect="bspline" />
    <inkscape:path-effect
       effect="bspline"
       id="path-effect832"
       is_visible="true"
       weight="33.333333"
       steps="2"
       helper_size="0"
       apply_no_weight="true"
       apply_with_weight="true"
       only_selected="false" />
    <inkscape:path-effect
       effect="bspline"
       id="path-effect828"
       is_visible="true"
       weight="33.333333"
       steps="2"
       helper_size="0"
       apply_no_weight="true"
       apply_with_weight="true"
       only_selected="false" />
  </defs>
  <sodipodi:namedview
     id="base"
     pagecolor="#ffffff"
     bordercolor="#666666"
     borderopacity="1.0"
     inkscape:pageopacity="0.0"
     inkscape:pageshadow="2"
     inkscape:zoom="0.9899495"
     inkscape:cx="182.80098"
     inkscape:cy="227.83633"
     inkscape:document-units="mm"
     inkscape:current-layer="layer1"
     showgrid="false"
     inkscape:window-width="1366"
     inkscape:window-height="706"
     inkscape:window-x="-8"
     inkscape:window-y="-8"
     inkscape:window-maximized="1"
     units="px" />
  <metadata
     id="metadata5">
    <rdf:RDF>
      <cc:Work
         rdf:about="">
        <dc:format>image/svg+xml</dc:format>
        <dc:type
           rdf:resource="http://purl.org/dc/dcmitype/StillImage" />
        <dc:title></dc:title>
      </cc:Work>
    </rdf:RDF>
  </metadata>
  <g
     inkscape:label="Layer 1"
     inkscape:groupmode="layer"
     id="layer1"
     transform="translate(0,-230.32499)">
    <g
       id="g1072"
       transform="matrix(0.15817922,0,0,0.15817922,54.32482,219.59184)">
      <ellipse
         ry="24.205225"
         rx="113.78556"
         cy="442.8988"
         cx="-113.01488"
         id="path947"
         style="opacity:1;fill:#008000;fill-opacity:1;fill-rule:nonzero;stroke:none;stroke-width:0.27050227;stroke-linecap:round;stroke-linejoin:round;stroke-miterlimit:4;stroke-dasharray:none;stroke-dashoffset:0;stroke-opacity:1" />
      <path
         inkscape:original-d="m -158.38957,132.20238 c 0,0 -8.06375,-12.34748 -12.09523,-18.52083 -4.66174,-3.65386 -9.32368,-7.30781 -13.98512,-10.96131 -5.16562,-1.00814 -10.33162,-2.01614 -15.49703,-3.023811 -5.4176,3.779271 -10.83558,7.559261 -16.25297,11.339281 -2.39409,4.53541 -4.78796,9.07117 -7.18155,13.60715 0.62971,5.92149 1.25966,11.84299 1.88988,17.76488 3.77968,3.52769 7.55926,7.30728 11.33929,10.96131 5.03977,1.38575 10.0791,2.77156 15.11904,4.15774 6.29973,0.88173 18.89881,2.64583 18.89881,2.64583 0,0 17.76488,-27.97024 17.76488,-27.97024 z"
         inkscape:path-effect="#path-effect832"
         inkscape:connector-curvature="0"
         id="path830"
         d="m -158.38957,132.20238 c -4.03174,-6.17361 -8.06368,-12.34752 -12.41034,-17.26109 -4.34666,-4.91356 -9.0086,-8.56751 -13.92213,-10.89825 -4.91354,-2.33073 -10.07954,-3.33873 -15.37092,-1.95289 -5.29138,1.38585 -10.70936,5.16584 -14.61505,9.32349 -3.90569,4.15765 -6.29956,8.6934 -7.18154,13.92204 -0.88198,5.22865 -0.25203,11.15015 1.92132,15.90752 2.17336,4.75736 6.0159,8.47182 10.42578,10.9918 4.40987,2.51997 9.4492,3.90579 15.11904,5.03977 5.66985,1.13398 11.96936,2.01591 18.26896,2.89785 0,0 17.76488,-27.97024 17.76488,-27.97024 z"
         style="fill:#f4862e;fill-opacity:1;stroke:none;stroke-width:0.26458332px;stroke-linecap:butt;stroke-linejoin:miter;stroke-opacity:1" />
      <path
         inkscape:path-effect="#path-effect836"
         style="fill:#f4862e;fill-opacity:1;stroke:none;stroke-width:0.26458332px;stroke-linecap:butt;stroke-linejoin:miter;stroke-opacity:1"
         d="m -19.654762,120.86309 c 4.031746,-6.17361 8.06369,-12.34752 12.410348,-17.26109 C -2.8977564,98.688443 1.7641816,95.034492 6.6777159,92.703756 11.59125,90.373019 16.757249,89.36502 22.048631,90.75087 c 5.291382,1.38585 10.709358,5.165833 14.615047,9.32348 3.905689,4.15765 6.299563,8.69341 7.181542,13.92205 0.881979,5.22863 0.252031,11.15013 -1.921322,15.90751 -2.173354,4.75737 -6.015894,8.47182 -10.425772,10.9918 -4.409878,2.51998 -9.449201,3.90579 -15.119049,5.03977 -5.669847,1.13398 -11.9693549,2.01591 -18.2689579,2.89785 0,0 -17.7648811,-27.97024 -17.7648811,-27.97024 z"
         id="path834"
         inkscape:connector-curvature="0"
         inkscape:original-d="m -19.654762,120.86309 c 0,0 8.063757,-12.34748 12.0952382,-18.52083 C -2.8977844,98.688407 1.7641535,95.034456 6.4255951,91.380952 11.59121,90.372813 16.757209,89.364814 21.922619,88.357143 27.340224,92.136417 32.7582,95.9164 38.175594,99.696427 c 2.39409,4.535403 4.787963,9.071163 7.181548,13.607143 -0.629708,5.92149 -1.259655,11.84299 -1.889882,17.76488 -3.779681,3.52769 -7.559257,7.30728 -11.339285,10.96131 -5.039775,1.38575 -10.0791,2.77156 -15.119047,4.15774 -6.29973,0.88173 -18.8988089,2.64583 -18.8988089,2.64583 0,0 -17.7648811,-27.97024 -17.7648811,-27.97024 z" />
      <path
         sodipodi:nodetypes="cssccc"
         inkscape:connector-curvature="0"
         id="path848"
         d="m -8.315476,122.56399 c 0,0 15.1190474,-14.55209 23.8125,-11.33929 8.693452,3.2128 7.9375,12.6622 4.91369,17.76488 -3.023809,5.10268 -17.9538688,9.82738 -17.9538688,9.82738 L -9.4264765,123.61963 Z"
         style="fill:#f37521;fill-opacity:1;stroke:none;stroke-width:0.26458332px;stroke-linecap:butt;stroke-linejoin:miter;stroke-opacity:1" />
      <path
         style="fill:#f37521;fill-opacity:1;stroke:none;stroke-width:0.249613px;stroke-linecap:butt;stroke-linejoin:miter;stroke-opacity:1"
         d="m -168.35912,134.69172 c 0,0 -14.2636,-13.72872 -22.46517,-10.6977 -8.20157,3.03101 -7.48838,11.94576 -4.63567,16.75973 2.85272,4.81396 16.93803,9.27134 16.93803,9.27134 l 11.21095,-14.33746 z"
         id="path850"
         inkscape:connector-curvature="0"
         sodipodi:nodetypes="cssccc" />
      <path
         inkscape:path-effect="#path-effect828"
         sodipodi:nodetypes="cccccccccccccc"
         inkscape:original-d="m -84.666666,89.113094 c 19.340046,3.149537 38.679829,6.299339 58.019345,9.449405 14.678339,17.764611 29.3564176,35.529501 44.034226,53.294641 6.803848,23.93827 13.607408,47.87672 20.410713,71.81548 -3.527539,13.35499 -7.055289,27.21402 -10.583333,40.82142 -11.726223,13.42901 -23.4519167,26.85738 -35.1786469,40.2869 -31.3634731,8.99755 -62.7258691,17.99499 -94.0892081,26.99288 -31.22164,-16.55926 -62.23972,-33.01015 -93.36011,-49.5149 -2.89757,-23.05687 -5.79538,-46.11336 -8.69346,-69.16964 4.09496,-12.09537 8.18975,-24.19073 12.28423,-36.28571 4.221,-10.5836 8.44173,-21.16693 12.6622,-31.75 10.07931,-13.10303 20.15899,-26.20661 30.23809,-39.30952 13.10315,-4.53588 26.20662,-9.071696 39.30953,-13.607147 8.31553,-1.008176 16.631213,-2.016138 24.946424,-3.023809 z"
         inkscape:connector-curvature="0"
         id="path826"
         d="m -79.154259,91.191963 c 13.82759,1.070968 33.167373,4.22077 50.176181,14.678077 17.008807,10.45731 31.6868885,28.2222 42.427702,49.07383 10.740814,20.85163 17.544373,44.79008 19.21293,63.44482 1.668556,18.65474 -1.920411,32.4979 -9.54746,46.01612 -7.627049,13.51822 -19.3527435,26.94659 -40.897811,38.16023 -21.545067,11.21363 -52.907465,20.21106 -84.200063,16.43045 -31.2926,-3.78061 -62.31068,-20.2315 -79.31972,-40.01245 -17.00904,-19.78095 -19.90685,-42.83744 -19.30834,-60.41331 0.59851,-17.57587 4.69329,-29.67123 8.85104,-41.01052 4.15775,-11.3393 8.37848,-21.92262 15.52842,-33.76566 7.14994,-11.84304 17.22962,-24.94662 28.82079,-33.76592 11.59117,-8.81931 24.69464,-13.355122 35.40385,-16.126898 10.70921,-2.771775 19.024891,-3.779737 32.852481,-2.708769 z"
         style="fill:#f4862d;fill-opacity:1;stroke:none;stroke-width:0.26458332px;stroke-linecap:butt;stroke-linejoin:miter;stroke-opacity:1" />
      <path
         sodipodi:nodetypes="ccccccccc"
         inkscape:original-d="m -130.77976,297.75594 c -9.57513,2.77156 -19.15053,5.54339 -28.72619,8.31548 -11.71739,10.45743 -23.43397,20.91417 -35.15178,31.37203 -3.27561,18.26902 -6.55127,36.53708 -9.82739,54.80653 10.20581,14.86708 20.41099,29.73389 30.61607,44.6012 4.32454,2.82755 12.9728,8.48339 12.9728,8.48339 H -47.573975 V 301.5357 c 0,0 -55.470255,-2.5201 -83.205785,-3.77976 z"
         inkscape:path-effect="#path-effect840"
         inkscape:connector-curvature="0"
         id="path838"
         d="m -121.69954,299.77177 c -18.6553,0.7559 -28.2307,3.52773 -38.87724,10.14241 -10.64655,6.61469 -22.36313,17.07142 -29.85995,31.43484 -7.49682,14.36341 -10.77248,32.63147 -7.30768,49.19986 3.4648,16.56839 13.66998,31.4352 20.93484,40.28267 7.26487,8.84748 11.58905,11.67522 15.91332,14.50302 0,0 113.322275,0 113.322275,0 0,0 0,-143.79887 0,-143.79887 -27.735262,-1.25992 -55.470265,-2.51983 -74.125565,-1.76393 z"
         style="fill:#f4862d;fill-opacity:1;stroke:none;stroke-width:0.26458332px;stroke-linecap:butt;stroke-linejoin:miter;stroke-opacity:1" />
      <path
         id="path844"
         transform="scale(0.26458333)"
         d="m -288.89648,860.60938 c -2.44907,0.02 -4.911,0.0837 -7.38868,0.19531 -158.57144,7.14285 -254.28547,148.57251 -277.14257,181.42971 -11.38728,16.3692 -28.79975,46.9167 -43.41016,73.457 64.29681,45.6582 147.57974,79.8353 231.39062,89.9609 118.27124,14.289 236.80616,-19.7173 318.236332,-62.0996 24.780098,-12.8973 46.107272,-26.5735 64.6230474,-40.7949 C -40.532408,1031.5009 -137.16958,859.37096 -288.89648,860.60938 Z"
         style="fill:#f7b446;fill-opacity:0.88825408;stroke:none;stroke-width:0.99999994px;stroke-linecap:butt;stroke-linejoin:miter;stroke-opacity:1"
         inkscape:connector-curvature="0" />
      <g
         style="stroke:#393939;stroke-width:1.85208333;stroke-miterlimit:4;stroke-dasharray:none;stroke-opacity:1"
         transform="translate(0.52916667,0.52916667)"
         id="g875">
        <path
           style="fill:none;stroke:#393939;stroke-width:1.85208333;stroke-linecap:butt;stroke-linejoin:miter;stroke-miterlimit:4;stroke-dasharray:none;stroke-opacity:1"
           d="m -100.22607,247.55513 c -0.17635,2.40191 0.599121,4.8608 2.121517,6.72696 1.522395,1.86617 3.775448,3.11967 6.163835,3.42929 2.484995,0.32215 5.087604,-0.3847 7.068217,-1.91968 1.980614,-1.53498 3.31449,-3.8789 3.622567,-6.36568"
           id="path860"
           inkscape:connector-curvature="0"
           inkscape:path-effect="#path-effect862"
           inkscape:original-d="m -100.22607,247.55513 c 2.762048,3.38515 5.523833,6.77057 8.285352,10.15625 2.761523,3.38568 7.127455,-5.52384 10.690784,-8.28536" />
        <path
           style="fill:none;stroke:#393939;stroke-width:1.85208333;stroke-linecap:butt;stroke-linejoin:miter;stroke-miterlimit:4;stroke-dasharray:none;stroke-opacity:1"
           d="m -61.20472,248.08967 c 0.03588,2.49519 -0.897509,4.99189 -2.561461,6.8516 -1.663952,1.85971 -4.041894,3.06391 -6.525704,3.30465 -2.584099,0.25046 -5.254679,-0.54806 -7.277154,-2.17591 -2.022476,-1.62785 -3.373295,-4.06607 -3.680893,-6.64399"
           id="path864"
           inkscape:connector-curvature="0"
           inkscape:path-effect="#path-effect866"
           inkscape:original-d="m -61.20472,248.08967 c -3.028792,3.38515 -6.057845,6.77057 -9.087165,10.15625 -3.029318,3.38567 -7.305101,-5.8802 -10.958047,-8.8199" />
        <path
           style="fill:none;stroke:#393939;stroke-width:1.85208333;stroke-linecap:butt;stroke-linejoin:miter;stroke-miterlimit:4;stroke-dasharray:none;stroke-opacity:1"
           d="M -81.249932,249.42602 V 236.86435"
           id="path868"
           inkscape:connector-curvature="0"
           inkscape:path-effect="#path-effect870"
           inkscape:original-d="m -81.249932,249.42602 c 2.65e-4,-4.27658 2.65e-4,-8.37471 0,-12.56167" />
      </g>
      <path
         inkscape:connector-curvature="0"
         id="path846"
         d="m -80.130951,194.94643 -21.922619,44.97916 h 41.199404 z"
         style="fill:#f27420;fill-opacity:1;stroke:none;stroke-width:0.26458332px;stroke-linecap:butt;stroke-linejoin:miter;stroke-opacity:1" />
      <path
         id="path879"
         transform="scale(0.26458333)"
         d="m -1123.8301,1073.5449 a 58.924039,66.164974 0 0 0 -58.9238,66.166 58.924039,66.164974 0 0 0 1.0703,12.3125 c 0.5876,14.5046 2.2922,36.3213 6.9707,62.8809 23.1951,131.6769 119.2463,378.3057 512.05274,410.6719 -16.83484,-40.4072 -33.67092,-80.8137 -50.50781,-121.2188 -315.79933,-21.6547 -349.49463,-292.9593 -353.09573,-350.6953 a 58.924039,66.164974 0 0 0 1.3575,-13.9512 58.924039,66.164974 0 0 0 -58.9239,-66.166 z"
         style="fill:#f4862d;fill-opacity:1;stroke:none;stroke-width:0.99999994px;stroke-linecap:butt;stroke-linejoin:miter;stroke-opacity:1"
         inkscape:connector-curvature="0" />
      <path
         inkscape:connector-curvature="0"
         id="path901"
         d="m -138.52827,402.83333 v 42.14434"
         style="fill:none;stroke:#000000;stroke-width:0.26458332px;stroke-linecap:butt;stroke-linejoin:miter;stroke-opacity:1" />
      <path
         style="fill:none;stroke:#000000;stroke-width:0.26458332px;stroke-linecap:butt;stroke-linejoin:miter;stroke-opacity:1"
         d="m -118.49553,402.83333 v 42.14434"
         id="path905"
         inkscape:connector-curvature="0" />
      <g
         style="stroke:#323232;stroke-width:5.29166651;stroke-miterlimit:4;stroke-dasharray:none;stroke-opacity:1"
         id="g1005">
        <path
           inkscape:connector-curvature="0"
           id="path907"
           d="m -138.52827,402.83333 v 42.14434"
           style="fill:none;stroke:#323232;stroke-width:5.29166651;stroke-linecap:butt;stroke-linejoin:miter;stroke-miterlimit:4;stroke-dasharray:none;stroke-opacity:1" />
        <path
           style="fill:none;stroke:#323232;stroke-width:5.29166651;stroke-linecap:butt;stroke-linejoin:miter;stroke-miterlimit:4;stroke-dasharray:none;stroke-opacity:1"
           d="m -118.49553,402.83333 v 42.14434"
           id="path909"
           inkscape:connector-curvature="0" />
        <path
           style="fill:none;stroke:#323232;stroke-width:5.29166651;stroke-linecap:butt;stroke-linejoin:miter;stroke-miterlimit:4;stroke-dasharray:none;stroke-opacity:1"
           d="m -92.415175,402.83333 v 42.14434"
           id="path911"
           inkscape:connector-curvature="0" />
        <path
           inkscape:connector-curvature="0"
           id="path913"
           d="m -72.382435,402.83333 v 42.14434"
           style="fill:none;stroke:#323232;stroke-width:5.29166651;stroke-linecap:butt;stroke-linejoin:miter;stroke-miterlimit:4;stroke-dasharray:none;stroke-opacity:1" />
      </g>
      <path
         id="path915"
         transform="scale(0.26458333)"
         d="m -179.80664,1234.377 a 194.41501,187.52086 0 0 0 -70.32227,144.1425 194.41501,187.52086 0 0 0 70.32227,144.2696 z"
         style="opacity:1;fill:#323232;fill-opacity:1;fill-rule:nonzero;stroke:none;stroke-width:1.13385832;stroke-linecap:round;stroke-linejoin:round;stroke-miterlimit:4;stroke-dasharray:none;stroke-dashoffset:0;stroke-opacity:1"
         inkscape:connector-curvature="0" />
      <path
         id="path917"
         transform="scale(0.26458333)"
         d="m -629.59961,1186.7559 c -25.89847,19.1781 -51.92453,44.1556 -73.06836,74.9902 l 94.55664,3.2051 z"
         style="fill:#323232;fill-opacity:1;stroke:#000000;stroke-width:0.99999994px;stroke-linecap:butt;stroke-linejoin:miter;stroke-opacity:1"
         inkscape:connector-curvature="0" />
      <path
         id="path919"
         transform="scale(0.26458333)"
         d="m -739.08398,1337.1191 c -12.6819,40.5663 -17.1019,85.1501 -10.40625,127.4493 l 76.72851,-90.5215 z"
         style="fill:#323232;fill-opacity:1;stroke:#000000;stroke-width:0.99999994px;stroke-linecap:butt;stroke-linejoin:miter;stroke-opacity:1"
         inkscape:connector-curvature="0" />
      <path
         id="path921"
         transform="scale(0.26458333)"
         d="m -751.19336,917.74219 c 9.18491,45.40304 28.51438,93.13931 65.95508,136.68161 10.15357,11.8083 21.63195,23.3006 34.22266,34.3418 l 51.73046,-151.96091 z"
         style="fill:#323232;fill-opacity:1;stroke:none;stroke-width:0.99999994px;stroke-linecap:butt;stroke-linejoin:miter;stroke-opacity:1"
         inkscape:connector-curvature="0" />
      <path
         id="path923"
         transform="scale(0.26458333)"
         d="m -704.98242,620.30664 c -7.09564,16.79567 -13.46377,33.55908 -19.7793,50.7832 -12.09192,32.97788 -24.03568,67.65887 -29.93359,112.15625 l 146.12304,-59.29687 z"
         style="fill:#323232;fill-opacity:1;stroke:none;stroke-width:0.99999994px;stroke-linecap:butt;stroke-linejoin:miter;stroke-opacity:1"
         inkscape:connector-curvature="0" />
      <path
         id="path925"
         transform="scale(0.26458333)"
         d="m -483.36719,374.4707 c -24.70638,10.06371 -50.07695,23.34957 -73.77539,41.38086 -16.93411,12.88456 -33.00839,28.19597 -47.92578,44.70899 l 126.49609,110.53125 z"
         style="fill:#323232;fill-opacity:1;stroke:none;stroke-width:0.99999994px;stroke-linecap:butt;stroke-linejoin:miter;stroke-opacity:1"
         inkscape:connector-curvature="0" />
      <path
         id="path927"
         transform="scale(0.26458333)"
         d="m -334.92188,343.08203 c -22.27408,-0.0986 -41.08306,1.77586 -60.37109,5.44531 l 78.15039,178.27735 65.73828,-176.51953 c -17.10378,-2.76221 -33.23927,-4.49826 -47.76172,-5.62305 -13.06544,-1.01194 -24.82761,-1.5317 -35.75586,-1.58008 z"
         style="fill:#323232;fill-opacity:1;stroke:none;stroke-width:0.99999994px;stroke-linecap:butt;stroke-linejoin:miter;stroke-opacity:1"
         inkscape:connector-curvature="0" />
      <path
         id="path929"
         transform="scale(0.26458333)"
         d="M -194.80273,362.96484 -208.57227,568.23438 -75.693359,424.0957 c -10.96916,-8.81503 -22.254192,-16.83997 -33.830081,-23.95703 -27.58559,-16.9601 -56.7915,-28.82358 -85.27929,-37.17383 z"
         style="fill:#323232;fill-opacity:1;stroke:none;stroke-width:0.99999994px;stroke-linecap:butt;stroke-linejoin:miter;stroke-opacity:1"
         inkscape:connector-curvature="0" />
      <path
         id="path931"
         transform="scale(0.26458333)"
         d="M 45.367188,575.26758 -70,668.23438 100.9668,711.93945 c -12.384387,-42.3302 -29.291028,-85.8631 -50.132816,-126.32422 -1.790071,-3.47514 -3.619376,-6.91924 -5.466796,-10.34765 z"
         style="fill:#323232;fill-opacity:1;stroke:none;stroke-width:0.99999994px;stroke-linecap:butt;stroke-linejoin:miter;stroke-opacity:1"
         inkscape:connector-curvature="0" />
      <path
         id="path933"
         transform="scale(0.26458333)"
         d="M 124.81641,867.87305 -12.857422,929.66211 60.4375,1040.1504 c 10.358951,-13.4816 19.204859,-27.1396 26.925781,-40.82423 22.726979,-40.28141 35.957839,-81.33496 37.453129,-131.45312 z"
         style="fill:#323232;fill-opacity:1;stroke:none;stroke-width:0.99999994px;stroke-linecap:butt;stroke-linejoin:miter;stroke-opacity:1"
         inkscape:connector-curvature="0" />
      <path
         id="path935"
         transform="scale(0.26458333)"
         d="m -1050.3281,1243.1914 -27.5293,39.3281 39.7871,-3.0215 c -4.8556,-12.4866 -8.9097,-24.6795 -12.2578,-36.3066 z"
         style="fill:#323232;fill-opacity:1;stroke:#000000;stroke-width:0.99999994px;stroke-linecap:butt;stroke-linejoin:miter;stroke-opacity:1"
         inkscape:connector-curvature="0" />
      <path
         id="path937"
         transform="scale(0.26458333)"
         d="m -910.49805,1442.4512 -2.17383,32.6113 27.375,-17.4199 c -8.82211,-4.7992 -17.21624,-9.8746 -25.20117,-15.1914 z"
         style="fill:#323232;fill-opacity:1;stroke:#000000;stroke-width:0.99999994px;stroke-linecap:butt;stroke-linejoin:miter;stroke-opacity:1"
         inkscape:connector-curvature="0" />
      <path
         id="path939"
         transform="scale(0.26458333)"
         d="m -1028.3359,1402.332 -52.836,27.0742 c 12.2816,15.7124 26.0574,31.1535 41.502,46.0606 z"
         style="fill:#323232;fill-opacity:1;stroke:#000000;stroke-width:0.99999994px;stroke-linecap:butt;stroke-linejoin:miter;stroke-opacity:1"
         inkscape:connector-curvature="0" />
      <path
         id="path941"
         transform="scale(0.26458333)"
         d="m -814.28516,1549.6621 -33.16406,39.4531 c 16.3553,5.5193 33.50715,10.5574 51.49805,15.0547 z"
         style="fill:#323232;fill-opacity:1;stroke:#000000;stroke-width:0.99999994px;stroke-linecap:butt;stroke-linejoin:miter;stroke-opacity:1"
         inkscape:connector-curvature="0" />
      <ellipse
         ry="5.7462945"
         rx="5.8799295"
         cy="215.09804"
         cx="-32.596138"
         id="path943"
         style="opacity:1;fill:#1a1a1a;fill-opacity:1;fill-rule:nonzero;stroke:#000000;stroke-width:0.30000001;stroke-linecap:round;stroke-linejoin:round;stroke-miterlimit:4;stroke-dasharray:none;stroke-dashoffset:0;stroke-opacity:1" />
      <circle
         r="5.7462945"
         cy="215.61642"
         cx="-133.50113"
         id="path945"
         style="opacity:1;fill:#1a1a1a;fill-opacity:1;fill-rule:nonzero;stroke:#000000;stroke-width:0.30000001;stroke-linecap:round;stroke-linejoin:round;stroke-miterlimit:4;stroke-dasharray:none;stroke-dashoffset:0;stroke-opacity:1" />
    </g>
  </g>
</svg>
